<?xml version="1.0" encoding="UTF-8" standalone="no"?>
<!-- Created with Inkscape (http://www.inkscape.org/) -->

<svg
   xmlns:dc="http://purl.org/dc/elements/1.1/"
   xmlns:cc="http://creativecommons.org/ns#"
   xmlns:rdf="http://www.w3.org/1999/02/22-rdf-syntax-ns#"
   xmlns:svg="http://www.w3.org/2000/svg"
   xmlns="http://www.w3.org/2000/svg"
   xmlns:sodipodi="http://sodipodi.sourceforge.net/DTD/sodipodi-0.dtd"
   xmlns:inkscape="http://www.inkscape.org/namespaces/inkscape"
   width="179.36351mm"
   height="179.36351mm"
   viewBox="0 0 179.36351 179.36351"
   version="1.1"
   id="svg8"
   inkscape:version="0.92.4 (5da689c313, 2019-01-14)"
   sodipodi:docname="logo.svg">
  <defs
     id="defs2" />
  <sodipodi:namedview
     id="base"
     pagecolor="#ffffff"
     bordercolor="#666666"
     borderopacity="1.0"
     inkscape:pageopacity="0.0"
     inkscape:pageshadow="2"
     inkscape:zoom="0.7"
     inkscape:cx="241.18337"
     inkscape:cy="265.90043"
     inkscape:document-units="mm"
     inkscape:current-layer="layer1"
     showgrid="false"
     fit-margin-top="0"
     fit-margin-left="0"
     fit-margin-right="0"
     fit-margin-bottom="0"
     inkscape:window-width="2560"
     inkscape:window-height="1017"
     inkscape:window-x="1912"
     inkscape:window-y="-8"
     inkscape:window-maximized="1" />
  <metadata
     id="metadata5">
    <rdf:RDF>
      <cc:Work
         rdf:about="">
        <dc:format>image/svg+xml</dc:format>
        <dc:type
           rdf:resource="http://purl.org/dc/dcmitype/StillImage" />
        <dc:title></dc:title>
      </cc:Work>
    </rdf:RDF>
  </metadata>
  <g
     inkscape:label="Layer 1"
     inkscape:groupmode="layer"
     id="layer1"
     transform="translate(-14.261699,-62.553363)">
    <g
       transform="matrix(0.35277777,0,0,-0.35277777,14.261699,241.91687)"
       inkscape:label="ink_ext_XXXXXX"
       id="g839">
      <g
         transform="scale(0.1)"
         id="g841">
        <path
           inkscape:connector-curvature="0"
           id="path843"
           style="fill:#1b4e4c;fill-opacity:1;fill-rule:nonzero;stroke:none"
           d="M 5084.32,2542.13 C 5084.32,1138.12 3946.14,0 2542.15,0 1138.18,0 0,1138.12 0,2542.13 c 0,1404.01 1138.18,2542.19 2542.15,2542.19 1403.99,0 2542.17,-1138.18 2542.17,-2542.19" />
        <path
           inkscape:connector-curvature="0"
           id="path845"
           style="fill:#ffffff;fill-opacity:1;fill-rule:nonzero;stroke:none"
           d="m 3513.87,2604.35 c -261.25,137.29 -508.51,132.37 -736.72,17.01 55.64,410.2 611.61,149.57 766.19,-28.13 z m -183.25,-348.44 c -42.24,-59.59 -135.15,-127.3 -221.13,-142.5 85.98,72.39 23.41,182.43 -75.99,187.81 -126.94,-10.75 -134.86,-158.27 -46.56,-201.17 -47.4,-28.61 -136.73,-26.37 -191.38,-24.15 -55.37,344.89 423.14,369.68 681.29,324.25 l 12.42,-12.12 c -98.5,-27.77 -99.77,-48.96 -158.65,-132.12 z m -456.26,-416 c -60.75,-246.82 5.34,-388.64 -15.99,-493.86 -104.49,223.07 -82.8,466.99 -62.56,573.52 39.48,12.71 193.14,16.92 193.14,16.92 -16.58,-42.94 -106,-61.68 -114.59,-96.58 z M 2798.27,491.563 C 2956.61,673.52 2517.7,656.66 2750.23,437.43 2682.26,401.602 2623.78,384.75 2564.97,386.219 v -0.039 c -0.39,0 -0.85,0.039 -1.23,0.039 -0.36,0 -0.81,-0.039 -1.2,-0.039 v 0.039 c -58.85,-1.469 -117.31,15.383 -185.23,51.211 232.53,219.23 -206.49,236.09 -48.08,54.133 -123.46,-34.071 -153.44,117.406 -91.5,197.406 63,81.363 157.46,86.5 256.21,87.242 20.17,2.859 40.66,2.988 61.59,0.781 2.29,0.207 4.68,0.387 7.01,0.52 v 0.218 c 0.39,0 0.84,-0.07 1.2,-0.109 0.38,0.039 0.84,0.109 1.23,0.109 v -0.218 c 2.35,-0.133 4.67,-0.313 7.03,-0.52 20.91,2.207 41.42,2.078 61.56,-0.781 98.79,-0.742 193.21,-5.879 256.21,-87.242 61.94,-80 32.03,-231.477 -91.5,-197.406 z M 2135,1936.49 c 0,0 153.69,-4.21 193.14,-16.92 20.23,-106.53 41.99,-350.45 -62.54,-573.52 -21.33,105.22 36.78,247.04 -23.89,493.86 -8.63,34.9 -90.17,53.64 -106.71,96.58 z m -128.11,176.92 c -85.91,15.2 -178.82,82.91 -221.06,142.5 -58.92,83.16 -60.18,104.35 -158.69,132.12 l 12.42,12.12 c 258.16,45.43 736.7,20.64 681.3,-324.25 -54.7,-2.22 -143.95,-4.46 -191.32,24.15 88.3,42.9 80.35,190.42 -46.63,201.17 -99.29,-5.38 -161.93,-115.42 -76.02,-187.81 z m -426.17,479.82 c 154.5,177.7 710.57,438.33 766.14,28.13 -228.23,115.36 -475.54,120.28 -736.79,-17.01 z m -247.7,883.18 c -32.62,58.67 -97.56,176.54 -93.8,241.5 88.28,-53.66 207.2,-48.3 230.78,20.75 11.75,34.67 3.76,70.41 -7.29,118.75 -22.1,166.31 -85.62,244.14 -95.8,262.09 -53.74,94.29 -151.16,25.78 -157.04,124.03 0,0 19.51,48.06 54.21,72.78 219.26,156.42 324.28,-310.77 350.39,-426.73 50.43,-223.7 24,-708.94 320.13,-740.49 17.77,-0.99 -0.71,-13.37 18.86,-12.99 -19.85,-1.3 -38.46,-0.86 -55.89,0.97 -142.32,7.92 -229.78,58.3 -283.52,138.75 -85.91,19.8 -242.38,131.16 -281.03,200.59 z m 1856.43,-327.32 c 296.02,31.55 269.63,516.79 320.06,740.49 26.15,115.96 158.34,599.18 350.44,426.73 31.67,-28.45 54.16,-72.78 54.16,-72.78 -5.81,-98.25 -103.33,-29.74 -156.98,-124.03 -10.27,-17.95 -73.79,-95.78 -95.86,-262.09 -11.02,-48.34 -19.01,-84.08 -7.29,-118.75 23.58,-69.05 142.5,-74.41 230.77,-20.75 3.7,-64.96 -61.09,-182.83 -93.83,-241.5 -38.53,-69.43 -195.11,-180.79 -280.99,-200.59 -53.77,-80.45 -141.19,-130.83 -283.42,-138.75 -17.52,-1.83 -36.14,-2.27 -56.03,-0.97 19.57,-0.38 1.2,12 18.97,12.99 z M 4216.46,2109.53 c 0,0 -30.44,229.59 -153.35,426.4 -122.89,196.84 -216.16,256.18 -434.26,329.91 50.9,38.03 350.76,-40.22 438.38,-101.55 -43.36,117.39 -187.22,246.84 -291.19,318.98 299.18,409.81 318.97,1118.52 174.77,1304.2 -171.64,221.37 -291.9,91.03 -440.42,-50.38 -265.65,-252.93 -405.09,-436.41 -551.28,-526.14 -5.22,4.56 -26.93,266.35 -192.24,348.6 22.95,-87.51 31.36,-164.11 17.92,-248.58 -34.21,67.03 -87.32,125.51 -119.17,195.37 -35.06,76.85 -66.13,126.66 -121.32,212.52 -3.12,-111.07 -54.72,-349.85 -151.76,-407.82 22.1,64.41 16.52,171.76 -28.78,222.01 -8.48,-73.63 -28.12,-130.98 -65.36,-185.72 -20.38,-29.97 -105.37,-111.46 -133.42,-136.38 -146.3,89.73 -285.78,273.21 -551.36,526.14 -148.55,141.41 -268.7,271.75 -440.42,50.38 -144.15,-185.68 -124.41,-894.39 174.75,-1304.2 -104,-72.14 -247.88,-201.59 -291.24,-318.98 87.63,61.33 366.83,124.08 438.49,101.55 -218.17,-73.73 -311.41,-133.07 -434.27,-329.91 -122.965,-196.81 -153.41,-426.4 -153.41,-426.4 129.51,162.93 371.02,177.44 371.02,177.44 -134.09,-166.14 -265.61,-269.64 -169.96,-665.05 143.78,73.27 395.66,265.88 594.83,-36.75 123.1,-187.07 165.41,-305.78 200.64,-516.88 35.61,-213.06 61.7,-493.001 126.52,-622.938 76.13,-152.743 345.82,-250.653 525.73,-173.86 102.07,-43.32 232.92,-30.551 340.8,16.469 -1.77,-2.461 136.37,36.281 196.3,157.391 64.49,130.109 90.84,409.878 126.5,622.938 35.26,211.1 77.57,329.81 200.71,516.88 199.16,302.63 456.86,120.77 600.67,47.37 74.43,320.7 -41.75,488.29 -175.81,654.43 0,0 241.58,-14.51 370.99,-177.44" />
      </g>
    </g>
  </g>
</svg>
